HIERARCHY
ROOT Hips
{
	OFFSET -3.958830 18.904000 13.208200
	CHANNELS 6 Xposition Yposition Zposition Zrotation Yrotation Xrotation 
	JOINT LHipJoint
	{
		OFFSET 0.000000 0.000000 0.000000
		CHANNELS 3 Zrotation Yrotation Xrotation
		JOINT LeftUpLeg
		{
			OFFSET 1.800000 -1.400000 0.085000
			CHANNELS 3 Zrotation Yrotation Xrotation
			JOINT LeftLeg
			{
				OFFSET 2.215000 -6.000000 0.000000
				CHANNELS 3 Zrotation Yrotation Xrotation
				JOINT LeftFoot
				{
					OFFSET 2.500000 -6.900000 0.000000
					CHANNELS 3 Zrotation Yrotation Xrotation
					JOINT LeftToeBase
					{
						OFFSET 0.200000 -0.500000 1.950000
						CHANNELS 3 Zrotation Yrotation Xrotation
						End Site
						{
							OFFSET 0.000000 0.000000 0.000000
						}
					}
				}
			}
		}
	}
	JOINT RHipJoint
	{
		OFFSET 0.000000 0.000000 0.000000
		CHANNELS 3 Zrotation Yrotation Xrotation
		JOINT RightUpLeg
		{
			OFFSET -1.800000 -1.400000 0.085000
			CHANNELS 3 Zrotation Yrotation Xrotation
			JOINT RightLeg
			{
				OFFSET -2.215000 -6.000000 0.000000
				CHANNELS 3 Zrotation Yrotation Xrotation
				JOINT RightFoot
				{
					OFFSET -2.500000 -6.900000 0.000000
					CHANNELS 3 Zrotation Yrotation Xrotation
					JOINT RightToeBase
					{
						OFFSET -0.200000 -0.500000 1.950000
						CHANNELS 3 Zrotation Yrotation Xrotation
						End Site
						{
							OFFSET 0.000000 0.000000 0.000000
						}
					}
				}
			}
		}
	}
	JOINT LowerBack
	{
		OFFSET 0.000000 0.000000 0.000000
		CHANNELS 3 Zrotation Yrotation Xrotation
		JOINT Spine
		{
			OFFSET -0.087000 1.940000 -0.288900
			CHANNELS 3 Zrotation Yrotation Xrotation
			JOINT Spine1
			{
				OFFSET 0.000000 1.950000 0.060000
				CHANNELS 3 Zrotation Yrotation Xrotation
				JOINT Neck
				{
					OFFSET 0.000000 0.000000 0.000000
					CHANNELS 3 Zrotation Yrotation Xrotation
					JOINT Neck1
					{
						OFFSET 0.000000 1.600000 0.340000
						CHANNELS 3 Zrotation Yrotation Xrotation
						JOINT Head
						{
							OFFSET 0.000000 1.667000 -0.240000
							CHANNELS 3 Zrotation Yrotation Xrotation
							End Site
							{
								OFFSET 0.000000 0.000000 0.000000
							}
						}
					}
				}
				JOINT LeftShoulder
				{
					OFFSET 0.000000 0.000000 0.000000
					CHANNELS 3 Zrotation Yrotation Xrotation
					JOINT LeftArm
					{
						OFFSET 2.700000 1.550000 -0.730000
						CHANNELS 3 Zrotation Yrotation Xrotation
						JOINT LeftForeArm
						{
							OFFSET 5.450000 0.000000 0.000000
							CHANNELS 3 Zrotation Yrotation Xrotation
							JOINT LeftHand
							{
								OFFSET 3.450000 0.000000 0.000000
								CHANNELS 3 Zrotation Yrotation Xrotation
								JOINT LeftHandIndex1
								{
									OFFSET 0.750000 0.000000 0.000000
									CHANNELS 3 Zrotation Yrotation Xrotation
									End Site
									{
										OFFSET 0.000000 0.000000 0.000000
									}
								}
							}
						}
					}
				}
				JOINT RightShoulder
				{
					OFFSET 0.000000 0.000000 0.000000
					CHANNELS 3 Zrotation Yrotation Xrotation
					JOINT RightArm
					{
						OFFSET -2.700000 1.550000 -0.730000
						CHANNELS 3 Zrotation Yrotation Xrotation
						JOINT RightForeArm
						{
							OFFSET -5.450000 0.000000 0.000000
							CHANNELS 3 Zrotation Yrotation Xrotation
							JOINT RightHand
							{
								OFFSET -3.450000 0.000000 0.000000
								CHANNELS 3 Zrotation Yrotation Xrotation
								JOINT RightHandIndex1
								{
									OFFSET -0.750000 0.000000 0.000000
									CHANNELS 3 Zrotation Yrotation Xrotation
									End Site
									{
										OFFSET 0.000000 0.000000 0.000000
									}
								}
							}
						}
					}
				}
			}
		}
	}
}
MOTION
Frames: 7
Frame Time: 0.016667
-0.281090 17.390920 -3.298030 -1.419128 14.636409 11.525876 -15.014752 11.075456 3.727498 17.994289 -4.297917 -32.557086 -13.113966 8.947203 21.265064 -0.723191 5.895409 2.569259 0.590750 0.023430 0.504810 18.737830 -8.987038 4.662471 -21.640353 7.077738 -39.540439 33.076297 -16.342996 28.580524 -0.989665 -7.514797 1.930686 0.114320 0.395020 0.237460 -4.565430 -0.571103 -8.959230 14.388687 -2.472936 19.519167 -10.304231 1.283934 3.349963 3.310788 0.672560 -6.075560 -0.832089 -2.235015 37.949688 -2.666590 -1.851030 -7.460290 -25.342463 -3.048634 0.191594 -35.496635 6.071922 -10.090100 -43.497109 -32.964233 8.023504 -3.646331 3.074592 0.759080 0.227220 -0.132840 0.332590 17.953284 1.908856 3.166961 50.947143 -5.782549 -14.464405 42.575919 30.290363 5.306187 1.868976 -1.618086 -0.383730 0.336110 -0.116180 -0.334500 
-0.279060 17.403070 -3.301110 -1.831040 14.184544 11.422471 -14.989512 11.139100 3.693273 17.903077 -4.173644 -32.358601 -12.543040 8.746025 21.132594 -0.731546 5.792502 2.605092 0.587050 0.018380 0.504110 18.745544 -9.082440 4.619833 -20.691513 7.380156 -39.572892 31.612225 -16.147308 29.506164 -0.971503 -7.434930 1.955506 0.104370 0.391360 0.241330 -4.620892 -0.504300 -8.922641 14.897066 -2.735145 19.745235 -10.876279 1.187625 3.197370 3.401306 0.603936 -6.164505 -0.878027 -1.974381 38.009589 -2.407790 -1.679720 -7.745070 -25.389315 -3.148939 0.302929 -35.466335 6.405798 -10.291624 -43.099543 -33.583896 8.112229 -3.635088 3.077612 0.766040 0.219080 -0.123960 0.330340 17.765535 2.008715 3.242173 51.213222 -5.660990 -14.498926 42.836032 30.294518 5.371150 1.877098 -1.611553 -0.378440 0.334280 -0.113210 -0.332940 
-0.279820 17.421100 -3.310070 -2.312840 13.313455 11.535173 -14.960499 11.257325 3.636979 17.378221 -4.086048 -32.290501 -11.344041 8.315884 21.006198 -0.733920 5.549666 2.693241 0.606790 0.039180 0.512390 18.750532 -9.225109 4.558753 -19.049095 7.841344 -40.003852 28.550627 -15.681234 31.430605 -0.939702 -7.286417 2.001183 0.098030 0.375790 0.254970 -4.678036 -0.445783 -8.849293 15.281373 -3.155442 19.936452 -11.699434 0.929232 2.982666 3.478986 0.279375 -6.295414 -1.336164 -1.401351 37.878494 -1.787040 -1.481010 -8.188670 -25.077735 -3.127592 0.432925 -35.799228 6.625582 -10.553189 -42.107026 -34.054824 7.979034 -3.603187 3.100697 0.769440 0.199340 -0.100680 0.342690 17.232906 2.166152 3.332299 51.854659 -5.264254 -14.472331 43.344796 30.131286 5.442345 1.899533 -1.626891 -0.351690 0.315840 -0.133020 -0.320330 
-0.278480 17.442110 -3.319690 -2.874856 12.114539 11.693854 -14.929854 11.419153 3.576168 16.574298 -3.998220 -32.219336 -9.893229 7.815794 20.950865 -0.754302 5.269446 2.787926 0.608070 0.047280 0.495110 18.749028 -9.406056 4.473265 -16.938022 8.328967 -40.351809 24.408377 -14.842525 33.749065 -0.879163 -7.058078 2.075086 0.086750 0.364270 0.262860 -4.726422 -0.401333 -8.757725 15.647953 -3.609750 20.273777 -12.583918 0.642770 2.568636 3.567798 -0.208978 -6.443825 -2.069769 -0.626517 37.740318 -1.066220 -1.246480 -8.741750 -24.599557 -2.902746 0.508868 -36.425312 6.863259 -10.860669 -40.776387 -34.553496 7.751985 -3.576801 3.114854 0.779430 0.180480 -0.084990 0.346160 16.496880 2.274070 3.441940 52.696798 -4.807822 -14.411902 44.055592 29.809678 5.535711 1.915550 -1.632985 -0.333530 0.298720 -0.133070 -0.309040 
-0.280390 17.464520 -3.335980 -3.468165 10.643245 11.785185 -14.913047 11.630375 3.542321 15.838200 -3.879033 -32.041142 -8.591434 7.339754 20.759555 -0.771973 5.004527 2.877844 0.611140 0.049990 0.487510 18.724552 -9.589906 4.359980 -14.328777 8.776081 -40.392233 19.442110 -13.471096 35.975475 -0.800310 -6.687759 2.204387 0.069660 0.343860 0.265100 -4.715961 -0.454063 -8.678845 15.691800 -4.134078 21.112122 -13.172981 0.263624 1.843859 3.630036 -0.844779 -6.715701 -3.119951 0.374726 37.813786 -0.353620 -0.836580 -9.563610 -23.945646 -2.677179 0.641637 -37.424324 7.169876 -11.245235 -39.611484 -34.957511 7.494407 -3.540829 3.115276 0.806070 0.151080 -0.062260 0.348990 15.664250 2.592647 3.600994 53.467094 -4.203789 -14.281152 44.828859 29.298035 5.609395 1.933482 -1.627875 -0.320620 0.285720 -0.136740 -0.305420 
-0.287070 17.479530 -3.349860 -3.714218 8.718036 12.003614 -14.914851 11.870686 3.514264 14.884806 -3.808067 -31.769382 -7.432575 6.914333 20.541538 -0.769361 4.751541 2.976330 0.603780 0.052180 0.471840 18.682311 -9.758738 4.234002 -11.643599 8.992650 -40.331800 13.753592 -11.530220 37.870371 -0.695805 -6.199068 2.382323 0.053520 0.340790 0.256130 -4.640324 -0.602449 -8.585878 14.846716 -4.462124 21.851239 -13.257223 -0.166334 1.278796 3.496319 -1.700529 -6.975606 -4.613528 1.550479 37.589859 0.348270 -0.443160 -10.049220 -23.243690 -2.394210 0.828863 -38.354239 7.693810 -11.698176 -39.074048 -35.427095 7.395782 -3.516153 3.109795 0.809080 0.131470 -0.049940 0.355230 15.243956 3.046352 3.682387 53.794308 -3.623156 -14.109998 45.675062 28.933391 5.733226 1.958391 -1.620268 -0.309300 0.289530 -0.140740 -0.290370 
-0.295380 17.490140 -3.364470 -4.143784 6.430020 12.158085 -14.910292 12.064796 3.503262 14.391295 -3.632981 -31.506505 -6.654972 6.709345 20.588939 -0.783202 4.655503 3.023609 0.600900 0.044120 0.471040 18.655259 -9.918852 4.105067 -8.533160 9.189955 -39.914836 7.712084 -9.032675 38.736230 -0.591351 -5.563302 2.615205 0.041790 0.350960 0.256560 -4.583716 -0.688610 -8.495165 14.147360 -4.664739 22.542246 -13.478962 -0.424234 0.973119 3.417289 -2.358451 -7.191413 -5.742771 2.631244 37.326346 0.817860 0.073410 -11.028710 -22.645504 -2.217760 0.975558 -38.897759 8.107100 -12.024539 -38.850800 -35.793034 7.333694 -3.503577 3.079791 0.838730 0.118970 -0.033100 0.364820 14.823165 3.401555 3.772461 54.255697 -3.109252 -14.126772 47.033870 29.613896 6.315227 1.959713 -1.606951 -0.318160 0.314280 -0.139400 -0.287440 
